<?xml version="1.0" standalone="no"?>
<!DOCTYPE svg PUBLIC "-//W3C//DTD SVG 20010904//EN"
 "http://www.w3.org/TR/2001/REC-SVG-20010904/DTD/svg10.dtd">
<svg version="1.0" xmlns="http://www.w3.org/2000/svg"
 width="700.000000pt" height="700.000000pt" viewBox="0 0 700.000000 700.000000"
 preserveAspectRatio="xMidYMid meet">
<metadata>
Created by potrace 1.11, written by Peter Selinger 2001-2013
</metadata>
<g transform="translate(0.000000,700.000000) scale(0.100000,-0.100000)"
fill="#000000" stroke="none">
<path d="M0 3500 l0 -3500 3500 0 3500 0 0 3500 0 3500 -3500 0 -3500 0 0
-3500z m6825 0 l0 -3325 -3325 0 -3325 0 -3 3315 c-1 1823 0 3321 3 3328 3 10
674 12 3327 10 l3323 -3 0 -3325z"/>
<path d="M5884 4691 c-89 -22 -128 -53 -415 -338 -157 -156 -290 -283 -297
-283 -6 0 -62 28 -124 62 -189 103 -212 111 -308 112 -130 1 -163 -19 -475
-290 -143 -124 -265 -228 -272 -231 -6 -2 -82 48 -170 113 -203 150 -242 169
-348 169 -146 -1 -144 0 -653 -477 -246 -230 -449 -418 -452 -418 -3 0 -123
110 -268 245 -299 277 -326 295 -453 303 -84 5 -141 -10 -212 -57 -21 -13
-279 -278 -574 -589 l-536 -564 34 -32 c79 -76 427 -403 450 -424 l26 -23 368
388 c203 213 385 405 405 427 l37 38 254 -236 c195 -181 269 -244 316 -268
115 -57 245 -48 350 23 23 16 241 216 485 444 244 228 449 413 455 410 7 -2
75 -51 150 -108 160 -120 191 -138 256 -156 69 -20 181 -9 243 22 27 14 180
138 339 275 l290 251 80 -44 c260 -141 319 -161 424 -144 106 17 139 42 426
322 l271 264 142 -119 c79 -66 149 -118 155 -115 7 3 110 122 229 265 l217
261 -262 218 c-144 121 -282 233 -307 250 -79 54 -187 75 -276 54z"/>
</g>
</svg>
